<svg width="375" height="52" viewBox="0 0 375 52" fill="none" xmlns="http://www.w3.org/2000/svg">
<rect width="375" height="51.71" fill="white"/>
<path d="M332 36H363M332 16H363M332 26H363" stroke="#B71B26" stroke-width="2"/>
<path d="M17.4887 16.4739C18.5793 16.4739 21.1806 16.5811 22.9595 18.2975C23.9696 19.2629 24.7384 20.8541 24.7384 22.9727C24.7384 26.3249 23.2992 27.9697 22.6377 28.6133C21.0286 30.2045 18.8653 30.7766 15.8617 30.7766H12L13.761 16.4739H17.4976H17.4887ZM15.084 28.3809H16.0316C17.9178 28.3809 19.4821 28.0144 20.5548 26.8344C21.4577 25.8511 21.86 24.3672 21.86 23.0353C21.86 22.2397 21.6901 20.9524 20.6174 19.987C19.4553 18.959 17.8462 18.8696 17.0954 18.8696H16.2372L15.0751 28.372L15.084 28.3809Z" fill="#B71B26"/>
<path d="M35.2777 28.2915C34.8039 29.2569 34.053 30.0257 33.3021 30.4548C32.3814 30.9733 31.3534 31.0805 30.5131 31.0805C29.2705 31.0805 28.0459 30.8481 27.0626 29.7933C26.5441 29.2569 25.9452 28.3094 25.9452 26.7897C25.9452 25.1806 26.5262 23.5716 27.5542 22.5615C28.7342 21.3815 30.1287 21.1848 31.264 21.1848C32.3993 21.1848 33.5346 21.3994 34.4374 22.2575C35.4475 23.223 35.6353 24.4923 35.6353 25.6276C35.6353 26.012 35.6353 26.2891 35.5906 26.5752H28.6359C28.5286 27.4333 28.7878 28.0591 29.1722 28.4435C29.646 28.9351 30.227 29.0245 30.6919 29.0245C31.0137 29.0245 31.6126 29.0066 32.1043 28.7206C32.4887 28.4882 32.8105 28.0948 33.0071 27.7551L35.2598 28.2915H35.2777ZM33.3468 24.9035C33.3289 24.3672 33.0876 23.8487 32.7658 23.5537C32.3993 23.214 31.845 23.0352 31.3087 23.0352C30.6025 23.0352 30.084 23.3123 29.7175 23.6342C29.3957 23.9381 29.0918 24.3851 28.9487 24.9035H33.3468Z" fill="#B71B26"/>
<path d="M42.0179 23.7504C41.8212 23.5537 41.6335 23.4107 41.3564 23.2766C41.0793 23.1515 40.8379 23.0889 40.4803 23.0889C40.3731 23.0889 39.8546 23.1068 39.6043 23.3928C39.5149 23.5001 39.4076 23.67 39.4076 23.9471C39.4076 24.1437 39.4523 24.2868 39.6043 24.4208C39.7563 24.546 39.944 24.6354 40.3552 24.7605L41.1508 25.0198C41.6692 25.1896 42.2414 25.5114 42.59 25.8601C43.1263 26.4143 43.2336 27.1294 43.2336 27.6211C43.2336 28.6938 42.8045 29.4626 42.2682 29.9989C41.3027 30.9644 40.0781 31.0895 39.2199 31.0895C38.2723 31.0895 37.5661 30.8928 37.0298 30.6425C36.556 30.4101 36.0018 29.9542 35.6174 29.552L37.1818 27.9608C37.3963 28.2647 37.7002 28.5418 38.0399 28.7385C38.3617 28.9083 38.7461 29.0424 39.1126 29.0424C39.4523 29.0424 39.8814 28.953 40.1228 28.7653C40.3373 28.5955 40.4893 28.2915 40.4893 27.9518C40.4893 27.782 40.4446 27.5675 40.2569 27.3708C40.0602 27.2009 39.7384 27.0669 39.3361 26.9238L38.6925 26.6646C38.3081 26.5126 37.8522 26.2981 37.4678 25.9137C37.0387 25.4846 36.8421 25.0377 36.8421 24.3225C36.8421 23.4018 37.2265 22.6241 37.7628 22.1145C38.2992 21.5961 39.1573 21.2117 40.3999 21.2117C40.9988 21.2117 41.6871 21.3011 42.2235 21.5156C42.6347 21.6676 43.0816 21.9447 43.3856 22.1592L42.0358 23.7683L42.0179 23.7504Z" fill="#B71B26"/>
<path d="M49.0262 21.4887L47.8909 30.7765H45.2718L46.407 21.4887H49.0262ZM47.1401 16.5364C47.5691 16.0894 48.0429 16 48.3826 16C48.7938 16 49.1335 16.152 49.3659 16.3844C49.6252 16.6436 49.7771 17.0101 49.7771 17.3945C49.7771 17.7163 49.6699 18.1901 49.2586 18.5924C48.8743 18.9768 48.4184 19.1287 48.0161 19.1287C47.6138 19.1287 47.2831 18.9768 47.0328 18.7443C46.7735 18.4851 46.6216 18.1901 46.6216 17.761C46.6216 17.3319 46.7735 16.9029 47.1401 16.5364Z" fill="#B71B26"/>
<path d="M58.7253 21.4887H61.3444L60.2539 30.3475C60.1287 31.4381 59.9499 33.2259 58.8415 34.3612C58.1532 35.0674 56.8927 35.711 54.8546 35.711C53.7372 35.711 52.3695 35.5144 51.3772 34.4685C50.7783 33.8427 50.3492 32.8773 50.2419 31.8761H52.9863C53.031 32.2605 53.2187 32.7343 53.5226 33.0114C53.7551 33.2438 54.211 33.4852 54.935 33.4852C55.7485 33.4852 56.3474 33.2259 56.7408 32.8594C57.3218 32.3052 57.4916 31.4649 57.581 30.8392L57.7509 29.534C57.6436 29.686 57.2324 30.2402 56.5888 30.6246C56.0524 30.9464 55.4714 31.0716 54.8546 31.0716C53.7193 31.0716 52.6645 30.7945 51.8063 29.9363C51.118 29.248 50.5816 28.1574 50.5816 26.6109C50.5816 24.8499 51.27 23.3928 52.2533 22.4721C52.8969 21.8463 53.9696 21.1848 55.5608 21.1848C56.4011 21.1848 57.0447 21.3547 57.5095 21.6318C57.8313 21.8284 58.2604 22.1502 58.5822 22.6866L58.7342 21.4887H58.7253ZM54.1752 24.1705C53.5495 24.7247 53.2723 25.6097 53.2723 26.4053C53.2723 27.2635 53.6567 27.8177 53.9607 28.1216C54.4523 28.6133 55.0512 28.7653 55.5876 28.7653C56.6424 28.7653 57.2592 28.3809 57.581 28.0769C58.1353 27.5406 58.4839 26.6646 58.4839 25.8243C58.4839 24.984 58.0995 24.4119 57.7777 24.1079C57.3933 23.7682 56.7944 23.509 56.0435 23.509C55.1228 23.509 54.5238 23.8487 54.1752 24.1705Z" fill="#B71B26"/>
<path d="M63.615 21.4887H66.2342L66.0822 22.6866C66.3415 22.2754 66.708 21.9178 67.2175 21.6139C67.7539 21.31 68.2902 21.1848 69.0232 21.1848C70.2658 21.1848 71.0435 21.5692 71.5083 22.043C72.1073 22.6687 72.2414 23.4375 72.2414 24.0811C72.2414 24.5996 72.152 25.0287 72.0715 25.6723L71.4458 30.7766H68.8266L69.3629 26.4679C69.3808 26.2712 69.4881 25.3326 69.4881 24.984C69.4881 24.3404 69.2557 23.9738 69.059 23.804C68.8623 23.6073 68.5048 23.4196 67.9237 23.4196C67.1728 23.4196 66.7259 23.7236 66.4666 23.9738C65.975 24.4923 65.7604 25.3684 65.671 26.0299L65.09 30.7677H62.4708L63.6061 21.4798L63.615 21.4887Z" fill="#B71B26"/>
<path d="M83.6567 22.0072H89.7086L90.3969 16.4739H93.1859L91.4249 30.7856H88.6359L89.4046 24.4119H83.3528L82.584 30.7856H79.795L81.556 16.4739H84.345L83.6567 22.0072Z" fill="#B71B26"/>
<path d="M103.716 22.5254C104.315 23.1511 104.914 24.1523 104.914 25.6184C104.914 26.7983 104.548 28.2822 103.26 29.5248C102.036 30.6869 100.641 31.0892 98.9875 31.0892C97.6555 31.0892 96.413 30.812 95.4029 29.8019C94.7145 29.1404 94.1782 28.1035 94.1782 26.6464C94.1782 25.1893 94.8397 23.6875 95.7873 22.7668C96.5381 22.0337 97.8701 21.2024 100.033 21.2024C101.857 21.2024 102.992 21.8281 103.698 22.5343L103.716 22.5254ZM101.294 27.9515C101.83 27.4151 102.17 26.6017 102.17 25.8687C102.17 25.2876 101.937 24.5814 101.482 24.1523C101.052 23.7411 100.409 23.5087 99.7831 23.5087C99.0501 23.5087 98.326 23.7858 97.8075 24.2596C97.1639 24.8585 96.8868 25.7435 96.8868 26.4676C96.8868 27.0218 97.1192 27.6923 97.5304 28.0945C97.9595 28.5236 98.6478 28.756 99.2467 28.756C99.9529 28.756 100.731 28.4968 101.285 27.9426L101.294 27.9515Z" fill="#B71B26"/>
<path d="M109.482 21.4888L108.928 26.1282C108.838 26.8791 108.821 27.1115 108.821 27.2456C108.821 27.8446 109.017 28.1932 109.205 28.3809C109.482 28.6848 109.974 28.8547 110.51 28.8547C111.172 28.8547 111.645 28.6223 111.949 28.3362C112.441 27.8624 112.548 27.2188 112.656 26.3875L113.254 21.4977H115.874L115.248 26.6288C115.033 28.3451 114.622 29.6771 113.228 30.4727C112.387 30.9465 111.341 31.0984 110.456 31.0984C109.294 31.0984 108.141 30.8392 107.39 30.3028C106.899 29.9363 106.148 29.1676 106.148 27.7462C106.148 27.3797 106.192 26.9506 106.273 26.2891L106.854 21.5066H109.473L109.482 21.4888Z" fill="#B71B26"/>
<path d="M122.551 23.7504C122.355 23.5537 122.167 23.4107 121.89 23.2766C121.613 23.1515 121.371 23.0889 121.014 23.0889C120.906 23.0889 120.388 23.1068 120.138 23.3928C120.048 23.5001 119.941 23.67 119.941 23.9471C119.941 24.1437 119.986 24.2868 120.138 24.4208C120.29 24.546 120.477 24.6354 120.889 24.7605L121.684 25.0198C122.203 25.1896 122.775 25.5114 123.123 25.8601C123.66 26.4143 123.767 27.1294 123.767 27.6211C123.767 28.6938 123.338 29.4626 122.802 29.9989C121.836 30.9644 120.611 31.0895 119.753 31.0895C118.806 31.0895 118.1 30.8928 117.563 30.6425C117.089 30.4101 116.535 29.9542 116.151 29.552L117.715 27.9608C117.93 28.2647 118.234 28.5418 118.573 28.7385C118.895 28.9083 119.28 29.0424 119.646 29.0424C119.986 29.0424 120.415 28.953 120.656 28.7653C120.871 28.5955 121.023 28.2915 121.023 27.9518C121.023 27.782 120.978 27.5675 120.79 27.3708C120.594 27.2009 120.272 27.0669 119.869 26.9238L119.226 26.6646C118.841 26.5126 118.386 26.2981 118.001 25.9137C117.572 25.4846 117.375 25.0377 117.375 24.3225C117.375 23.4018 117.76 22.6241 118.296 22.1145C118.833 21.5961 119.691 21.2117 120.933 21.2117C121.532 21.2117 122.221 21.3011 122.757 21.5156C123.168 21.6676 123.615 21.9447 123.919 22.1592L122.569 23.7683L122.551 23.7504Z" fill="#B71B26"/>
<path d="M134.396 28.2915C133.922 29.2569 133.171 30.0257 132.42 30.4548C131.499 30.9733 130.471 31.0805 129.631 31.0805C128.389 31.0805 127.164 30.8481 126.181 29.7933C125.662 29.2569 125.063 28.3094 125.063 26.7897C125.063 25.1806 125.644 23.5716 126.672 22.5615C127.852 21.3815 129.247 21.1848 130.382 21.1848C131.517 21.1848 132.653 21.3994 133.555 22.2575C134.566 23.223 134.753 24.4923 134.753 25.6276C134.753 26.012 134.753 26.2891 134.709 26.5752H127.754C127.647 27.4333 127.906 28.0591 128.29 28.4435C128.764 28.9351 129.345 29.0245 129.81 29.0245C130.132 29.0245 130.731 29.0066 131.222 28.7206C131.607 28.4882 131.928 28.0948 132.125 27.7551L134.378 28.2915H134.396ZM132.465 24.9035C132.447 24.3672 132.206 23.8487 131.884 23.5537C131.517 23.214 130.963 23.0352 130.427 23.0352C129.72 23.0352 129.202 23.3123 128.836 23.6342C128.514 23.9381 128.21 24.3851 128.067 24.9035H132.465Z" fill="#B71B26"/>
<path d="M147.948 16.4739C149.038 16.4739 150.459 16.6258 151.505 17.7164C151.997 18.2349 152.516 19.0931 152.516 20.4608C152.516 21.8285 152.024 22.8833 151.336 23.5537C150.692 24.1795 149.637 24.6443 148.698 24.7963L152.346 30.7856H149.002L145.892 25.0376H145.552L144.846 30.7856H142.057L143.818 16.4739H147.957H147.948ZM145.784 23.0621H146.768C147.518 23.0621 148.466 22.8475 149.002 22.3112C149.262 22.0519 149.628 21.5424 149.628 20.6842C149.628 20.273 149.539 19.7188 149.047 19.2897C148.707 18.9858 148.126 18.7534 147.206 18.7534H146.33L145.793 23.071L145.784 23.0621Z" fill="#B71B26"/>
<path d="M162.822 28.2915C162.349 29.2569 161.598 30.0257 160.847 30.4548C159.926 30.9733 158.898 31.0805 158.058 31.0805C156.815 31.0805 155.591 30.8481 154.607 29.7933C154.089 29.2569 153.49 28.3094 153.49 26.7897C153.49 25.1806 154.071 23.5716 155.099 22.5615C156.279 21.3815 157.673 21.1848 158.809 21.1848C159.944 21.1848 161.079 21.3994 161.982 22.2575C162.992 23.223 163.18 24.4923 163.18 25.6276C163.18 26.012 163.18 26.2891 163.135 26.5752H156.181C156.073 27.4333 156.333 28.0591 156.717 28.4435C157.191 28.9351 157.772 29.0245 158.237 29.0245C158.558 29.0245 159.157 29.0066 159.649 28.7206C160.033 28.4882 160.355 28.0948 160.552 27.7551L162.805 28.2915H162.822ZM160.892 24.9035C160.874 24.3672 160.632 23.8487 160.31 23.5537C159.944 23.214 159.39 23.0352 158.853 23.0352C158.147 23.0352 157.629 23.3123 157.262 23.6342C156.94 23.9381 156.636 24.3851 156.493 24.9035H160.892Z" fill="#B71B26"/>
<path d="M165.156 21.4887H167.775L167.623 22.6866C167.882 22.2754 168.249 21.9178 168.758 21.6139C169.294 21.31 169.831 21.1848 170.564 21.1848C171.806 21.1848 172.584 21.5692 173.049 22.043C173.648 22.6687 173.782 23.4375 173.782 24.0811C173.782 24.5996 173.692 25.0287 173.612 25.6723L172.986 30.7766H170.367L170.903 26.4679C170.921 26.2712 171.029 25.3326 171.029 24.984C171.029 24.3404 170.796 23.9738 170.6 23.804C170.403 23.6073 170.045 23.4196 169.464 23.4196C168.713 23.4196 168.266 23.7236 168.007 23.9738C167.515 24.4923 167.301 25.3684 167.212 26.0299L166.631 30.7677H164.011L165.147 21.4798L165.156 21.4887Z" fill="#B71B26"/>
<path d="M184.509 22.5254C185.108 23.1511 185.707 24.1523 185.707 25.6184C185.707 26.7983 185.34 28.2822 184.053 29.5248C182.828 30.6869 181.434 31.0892 179.78 31.0892C178.448 31.0892 177.206 30.812 176.195 29.8019C175.507 29.1404 174.971 28.1035 174.971 26.6464C174.971 25.1893 175.632 23.6875 176.58 22.7668C177.331 22.0337 178.663 21.2024 180.826 21.2024C182.65 21.2024 183.785 21.8281 184.491 22.5343L184.509 22.5254ZM182.086 27.9515C182.623 27.4151 182.962 26.6017 182.962 25.8687C182.962 25.2876 182.73 24.5814 182.274 24.1523C181.845 23.7411 181.201 23.5087 180.576 23.5087C179.843 23.5087 179.119 23.7858 178.6 24.2596C177.957 24.8585 177.679 25.7435 177.679 26.4676C177.679 27.0218 177.912 27.6923 178.323 28.0945C178.752 28.5236 179.44 28.756 180.039 28.756C180.746 28.756 181.523 28.4968 182.077 27.9426L182.086 27.9515Z" fill="#B71B26"/>
<path d="M188.818 21.4888L190.623 26.7271L193.716 21.4888H196.72L190.838 30.7766H189.595L185.993 21.4888H188.827H188.818Z" fill="#B71B26"/>
<path d="M204.524 21.4886H207.143L206.008 30.7764H203.389L203.541 29.5786C203.067 30.2043 202.53 30.5261 202.361 30.6334C201.806 30.9552 201.27 31.0804 200.626 31.0804C199.509 31.0804 198.463 30.7764 197.578 29.9004C196.675 28.9975 196.336 27.8623 196.336 26.6197C196.336 24.9481 196.89 23.5714 197.775 22.6507C198.526 21.8819 199.723 21.1936 201.44 21.1936C202.101 21.1936 202.682 21.3188 203.281 21.6406C203.8 21.9177 204.122 22.2663 204.372 22.6954L204.524 21.4975V21.4886ZM199.974 24.1704C199.375 24.7246 199.053 25.547 199.053 26.3158C199.053 27.1292 199.357 27.7729 199.759 28.1573C200.144 28.5238 200.707 28.7562 201.476 28.7562C201.994 28.7562 202.7 28.6489 203.317 28.0947C203.943 27.5404 204.238 26.6555 204.238 25.8599C204.238 25.1984 203.979 24.6173 203.594 24.2061C203.29 23.8843 202.736 23.4999 201.788 23.4999C201.127 23.4999 200.501 23.6966 199.965 24.1614L199.974 24.1704Z" fill="#B71B26"/>
<path d="M213.472 23.7234L212.614 30.7854H209.995L210.853 23.7234H209.825L210.102 21.4886H211.13L211.514 18.3152H214.134L213.749 21.4886H215.555L215.278 23.7234H213.472Z" fill="#B71B26"/>
<path d="M220.185 21.4887L219.05 30.7765H216.431L217.566 21.4887H220.185ZM218.299 16.5364C218.728 16.0894 219.202 16 219.542 16C219.953 16 220.293 16.152 220.525 16.3844C220.784 16.6436 220.936 17.0101 220.936 17.3945C220.936 17.7163 220.829 18.1901 220.418 18.5924C220.033 18.9768 219.577 19.1287 219.175 19.1287C218.773 19.1287 218.442 18.9768 218.192 18.7443C217.933 18.4851 217.781 18.1901 217.781 17.761C217.781 17.3319 217.933 16.9029 218.299 16.5364Z" fill="#B71B26"/>
<path d="M230.957 22.5254C231.556 23.1511 232.155 24.1523 232.155 25.6184C232.155 26.7983 231.788 28.2822 230.501 29.5248C229.277 30.6869 227.882 31.0892 226.228 31.0892C224.896 31.0892 223.654 30.812 222.644 29.8019C221.955 29.1404 221.419 28.1035 221.419 26.6464C221.419 25.1893 222.08 23.6875 223.028 22.7668C223.779 22.0337 225.111 21.2024 227.274 21.2024C229.098 21.2024 230.233 21.8281 230.939 22.5343L230.957 22.5254ZM228.535 27.9515C229.071 27.4151 229.411 26.6017 229.411 25.8687C229.411 25.2876 229.178 24.5814 228.722 24.1523C228.293 23.7411 227.65 23.5087 227.024 23.5087C226.291 23.5087 225.567 23.7858 225.048 24.2596C224.405 24.8585 224.128 25.7435 224.128 26.4676C224.128 27.0218 224.36 27.6923 224.771 28.0945C225.2 28.5236 225.889 28.756 226.487 28.756C227.194 28.756 227.971 28.4968 228.526 27.9426L228.535 27.9515Z" fill="#B71B26"/>
<path d="M234.515 21.4887H237.134L236.982 22.6866C237.241 22.2754 237.608 21.9178 238.117 21.6139C238.654 21.31 239.19 21.1848 239.923 21.1848C241.166 21.1848 241.943 21.5692 242.408 22.043C243.007 22.6687 243.141 23.4375 243.141 24.0811C243.141 24.5996 243.052 25.0287 242.971 25.6723L242.346 30.7766H239.726L240.263 26.4679C240.281 26.2712 240.388 25.3326 240.388 24.984C240.388 24.3404 240.156 23.9738 239.959 23.804C239.762 23.6073 239.405 23.4196 238.824 23.4196C238.073 23.4196 237.626 23.7236 237.367 23.9738C236.875 24.4923 236.66 25.3684 236.571 26.0299L235.99 30.7677H233.371L234.506 21.4798L234.515 21.4887Z" fill="#B71B26"/>
<path d="M250.632 23.7504C250.436 23.5537 250.248 23.4107 249.971 23.2766C249.694 23.1515 249.452 23.0889 249.095 23.0889C248.987 23.0889 248.469 23.1068 248.219 23.3928C248.129 23.5001 248.022 23.67 248.022 23.9471C248.022 24.1437 248.067 24.2868 248.219 24.4208C248.371 24.546 248.558 24.6354 248.97 24.7605L249.765 25.0198C250.284 25.1896 250.856 25.5114 251.204 25.8601C251.741 26.4143 251.848 27.1294 251.848 27.6211C251.848 28.6938 251.419 29.4626 250.883 29.9989C249.917 30.9644 248.692 31.0895 247.834 31.0895C246.887 31.0895 246.181 30.8928 245.644 30.6425C245.17 30.4101 244.616 29.9542 244.232 29.552L245.796 27.9608C246.011 28.2647 246.315 28.5418 246.654 28.7385C246.976 28.9083 247.361 29.0424 247.727 29.0424C248.067 29.0424 248.496 28.953 248.737 28.7653C248.952 28.5955 249.104 28.2915 249.104 27.9518C249.104 27.782 249.059 27.5675 248.871 27.3708C248.675 27.2009 248.353 27.0669 247.951 26.9238L247.307 26.6646C246.923 26.5126 246.467 26.2981 246.082 25.9137C245.653 25.4846 245.456 25.0377 245.456 24.3225C245.456 23.4018 245.841 22.6241 246.377 22.1145C246.914 21.5961 247.772 21.2117 249.014 21.2117C249.613 21.2117 250.302 21.3011 250.838 21.5156C251.249 21.6676 251.696 21.9447 252 22.1592L250.65 23.7683L250.632 23.7504Z" fill="#B71B26"/>
</svg>
